Coordinates
nRows=363
nColumns=2
inDegrees=yes
endheader
time	ankle_angle_r	
0	  9.445190	
0.0332661	  9.429932	
0.0665323	  9.450084	
0.0997984	  9.460449	
0.133065	  9.455750	
0.166331	  9.497020	
0.199597	  9.445190	
0.232863	  9.364487	
0.266129	  9.436564	
0.299395	  9.467276	
0.332661	  9.429932	
0.365927	  9.479731	
0.399194	  9.479634	
0.43246	  9.418444	
0.465726	  9.487234	
0.498992	  9.399414	
0.532258	  9.433471	
0.565524	  9.509668	
0.59879	  9.521484	
0.632056	  9.448440	
0.665323	  9.512530	
0.698589	  9.500113	
0.731855	  9.496885	
0.765121	  9.527209	
0.798387	  9.475708	
0.831653	  9.481047	
0.864919	  9.549430	
0.898185	  9.493443	
0.931452	  9.490967	
0.964718	  9.534461	
0.997984	  9.490967	
1.03125	  9.525662	
1.06452	  9.510210	
1.09778	  9.506226	
1.13105	  9.540341	
1.16431	  9.552002	
1.19758	  9.494178	
1.23085	  9.536743	
1.26411	  9.550590	
1.29738	  9.493598	
1.33065	  9.537962	
1.36391	  9.507348	
1.39718	  9.506226	
1.43044	  9.508083	
1.46371	  9.521484	
1.49698	  9.490967	
1.53024	  9.536743	
1.56351	  9.491508	
1.59677	  9.429932	
1.63004	  9.445539	
1.66331	  9.475204	
1.69657	  9.429932	
1.72984	  9.475766	
1.7631	  9.490967	
1.79637	  9.414943	
1.82964	  9.521253	
1.8629	  9.459465	
1.89617	  9.369321	
1.92944	  9.475186	
1.9627	  9.551384	
1.99597	  9.460449	
2.02923	  9.521484	
2.0625	  9.475708	
2.09577	  9.428926	
2.12903	  9.505124	
2.1623	  9.490967	
2.19556	  9.463039	
2.22883	  9.492358	
2.2621	  9.521484	
2.29536	  9.462034	
2.32863	  9.475708	
2.3619	  9.475708	
2.39516	  9.458574	
2.42843	  9.494910	
2.46169	  9.484761	
2.49496	  9.414673	
2.52823	  9.516961	
2.56149	  9.521484	
2.59476	  9.445190	
2.62802	  9.488415	
2.66129	  9.508874	
2.69456	  9.490967	
2.72782	  9.521484	
2.76109	  9.524423	
2.79435	  9.475708	
2.82762	  9.558266	
2.86089	  9.552002	
2.89415	  9.487641	
2.92742	  9.548580	
2.96069	  9.579000	
2.99395	  9.525897	
3.02722	  9.536743	
3.06048	  9.536743	
3.09375	  9.513674	
3.12702	  9.552002	
3.16028	  9.529682	
3.19355	  9.495162	
3.22681	  9.562968	
3.26008	  9.541132	
3.29335	  9.490967	
3.32661	  9.526067	
3.35988	  9.515584	
3.39315	  9.521484	
3.42641	  9.526357	
3.45968	  9.485646	
3.49294	  9.485840	
3.52621	  9.546840	
3.55948	  9.511485	
3.59274	  9.490967	
3.62601	  9.511678	
3.65927	  9.435481	
3.69254	  9.494934	
3.72581	  9.487193	
3.75907	  9.462708	
3.79234	  9.490967	
3.8256	  9.451223	
3.85887	  9.439061	
3.89214	  9.457643	
3.9254	  9.445190	
3.95867	  9.445190	
3.99194	  9.416900	
4.0252	  9.423319	
4.05847	  9.390864	
4.09173	  9.416320	
4.125	  9.460449	
4.15827	  9.452189	
4.19153	  9.422835	
4.2248	  9.521484	
4.25806	  9.475708	
4.29133	  9.445190	
4.3246	  9.498449	
4.35786	  9.483387	
4.39113	  9.429932	
4.4244	  9.490680	
4.45766	  9.475708	
4.49093	  9.476382	
4.52419	  9.544806	
4.55746	  9.460449	
4.59073	  9.483964	
4.62399	  9.522932	
4.65726	  9.490967	
4.69052	  9.460449	
4.72379	  9.514869	
4.75706	  9.482227	
4.79032	  9.490967	
4.82359	  9.512551	
4.85685	  9.475708	
4.89012	  9.475708	
4.92339	  9.527520	
4.95665	  9.481647	
4.98992	  9.454607	
5.02319	  9.525252	
5.05645	  9.496615	
5.08972	  9.414673	
5.12298	  9.506226	
5.15625	  9.425390	
5.18952	  9.470973	
5.22278	  9.501060	
5.25605	  9.419742	
5.28931	  9.404387	
5.32258	  9.465958	
5.35585	  9.454748	
5.38911	  9.480390	
5.42238	  9.495552	
5.45565	  9.449679	
5.48891	  9.499750	
5.52218	  9.456154	
5.55544	  9.399414	
5.58871	  9.392359	
5.62198	  9.479713	
5.65524	  9.407231	
5.68851	  9.468084	
5.72177	  9.494682	
5.75504	  9.480112	
5.78831	  9.448712	
5.82157	  9.448615	
5.85484	  9.368896	
5.8881	  9.472476	
5.92137	  9.506226	
5.95464	  9.405491	
5.9879	  9.469825	
6.02117	  9.408983	
6.05444	  9.417421	
6.0877	  9.463100	
6.12097	  9.432487	
6.15423	  9.391530	
6.1875	  9.495689	
6.22077	  9.521484	
6.25403	  9.414673	
6.2873	  9.536743	
6.32056	  9.479657	
6.35383	  9.473830	
6.3871	  9.519703	
6.42036	  9.535058	
6.45363	  9.494143	
6.4869	  9.581028	
6.52016	  9.563077	
6.55343	  9.488371	
6.58669	  9.549600	
6.61996	  9.536743	
6.65323	  9.490967	
6.68649	  9.551091	
6.71976	  9.551188	
6.75302	  9.521484	
6.78629	  9.522105	
6.81956	  9.567261	
6.85282	  9.520629	
6.88609	  9.582189	
6.91935	  9.552237	
6.95262	  9.491242	
6.98589	  9.552002	
7.01915	  9.582464	
7.05242	  9.521484	
7.08569	  9.551753	
7.11895	  9.567261	
7.15222	  9.521484	
7.18548	  9.552002	
7.21875	  9.550731	
7.25202	  9.520752	
7.28528	  9.522313	
7.31855	  9.551076	
7.35181	  9.430954	
7.38508	  9.492086	
7.41835	  9.479356	
7.45161	  9.460449	
7.48488	  9.474298	
7.51815	  9.477214	
7.55141	  9.474106	
7.58468	  9.519785	
7.61794	  9.460449	
7.65121	  9.431825	
7.68448	  9.449169	
7.71774	  9.473622	
7.75101	  9.506226	
7.78427	  9.506226	
7.81754	  9.439436	
7.85081	  9.490967	
7.88407	  9.521484	
7.91734	  9.402081	
7.9506	  9.417436	
7.98387	  9.503366	
8.01714	  9.442234	
8.0504	  9.402467	
8.08367	  9.448340	
8.11694	  9.433178	
8.1502	  9.429932	
8.18347	  9.368896	
8.21673	  9.411137	
8.25	  9.426298	
8.28327	  9.490967	
8.31653	  9.449017	
8.3498	  9.418596	
8.38306	  9.445190	
8.41633	  9.353638	
8.4496	  9.429932	
8.48286	  9.429932	
8.51613	  9.373303	
8.5494	  9.440687	
8.58266	  9.495566	
8.61593	  9.399414	
8.64919	  9.409000	
8.68246	  9.501336	
8.71573	  9.399414	
8.74899	  9.358729	
8.78226	  9.445190	
8.81552	  9.424655	
8.84879	  9.410161	
8.88206	  9.424461	
8.91532	  9.414673	
8.94859	  9.409009	
8.98185	  9.471970	
9.01512	  9.387700	
9.04839	  9.414673	
9.08165	  9.405464	
9.11492	  9.472743	
9.14819	  9.454206	
9.18145	  9.399414	
9.21472	  9.454012	
9.24798	  9.414673	
9.28125	  9.484337	
9.31452	  9.429932	
9.34778	  9.445190	
9.38105	  9.484046	
9.41431	  9.453432	
9.44758	  9.446221	
9.48085	  9.467660	
9.51411	  9.459805	
9.54738	  9.437787	
9.58065	  9.475708	
9.61391	  9.407076	
9.64718	  9.429803	
9.68044	  9.483176	
9.71371	  9.399414	
9.74698	  9.414673	
9.78024	  9.445190	
9.81351	  9.438109	
9.84677	  9.475708	
9.88004	  9.497855	
9.91331	  9.458774	
9.94657	  9.489098	
9.97984	  9.530145	
10.0131	  9.445190	
10.0464	  9.558407	
10.0796	  9.534101	
10.1129	  9.521484	
10.1462	  9.545887	
10.1794	  9.530725	
10.2127	  9.496888	
10.246	  9.554217	
10.2792	  9.521484	
10.3125	  9.506226	
10.3458	  9.561727	
10.379	  9.562878	
10.4123	  9.511567	
10.4456	  9.547232	
10.4788	  9.567261	
10.5121	  9.521484	
10.5454	  9.552002	
10.5786	  9.562403	
10.6119	  9.536743	
10.6452	  9.530813	
10.6784	  9.567261	
10.7117	  9.506226	
10.745	  9.567261	
10.7782	  9.582520	
10.8115	  9.529846	
10.8448	  9.536743	
10.878	  9.559285	
10.9113	  9.525375	
10.9446	  9.559590	
10.9778	  9.548305	
11.0111	  9.521484	
11.0444	  9.563757	
11.0776	  9.563853	
11.1109	  9.521484	
11.1442	  9.518270	
11.1774	  9.499990	
11.2107	  9.478728	
11.244	  9.487404	
11.2772	  9.470054	
11.3105	  9.447921	
11.3437	  9.521484	
11.377	  9.455375	
11.4103	  9.473268	
11.4435	  9.506226	
11.4768	  9.468966	
11.5101	  9.416823	
11.5433	  9.490967	
11.5766	  9.506226	
11.6099	  9.412812	
11.6431	  9.460449	
11.6764	  9.428265	
11.7097	  9.429932	
11.7429	  9.475708	
11.7762	  9.475708	
11.8095	  9.460449	
11.8427	  9.446374	
11.876	  9.473534	
11.9093	  9.520494	
11.9425	  9.459556	
11.9758	  9.368099	
12.0091	  9.446591	
12.0423	  9.414673	
